
<global>
amp_veltrack=0
ampeg_release=0.35
</global>

<group>
group_label=PP
lpc_hicc1=42
lpc_locc1=0

<region>
hikey=a3
hivel=127
lokey=g#3
lovel=1
lpc=XCVUQbyQDsJWgSNCeqrKwQa2J0HtyfrAKzXmQLvQU79N5Z3AbE+6QKUDu8AH7tdAzADzwI3WpUBOR7c/VLXRwLyy2UBDN3LAsf/oP36whb/OXdY9KPVsvpGPXT99opq+
lpc_rms=-34.81
pitch_keycenter=a3
sample=SoloViolin1_tenuto_quarter_PP_A3.opus
</region>

<region>
hikey=a4
hivel=127
lokey=g#4
lovel=1
lpc=U1doQQkgF8L64CpCoAHdwV34ZUEjiiXB2c7OQNoLKMCajKI/wB35P8RBmsAiJSFAKMMCwKHYMEC7sb4+SE7ivxoMUL4K5aY/ezVXvyIAUUBqa6HAMpjYPyDJ+D+ecIm/
lpc_rms=-33.12
pitch_keycenter=a4
sample=SoloViolin1_tenuto_quarter_PP_A4.opus
</region>

<region>
hikey=a5
hivel=127
lokey=g#5
lovel=1
lpc=h1UPQdtHCcFSns1AwhtvwJ188UD6hEbA6jCnP4c83D4ghtY/7BU1QNy+vr+5yfE/inpVv4PkhkAjL3o8mE2ZvtVvnT/eWj4//iBjQGWIwL8YOAJAaXrrv7DFn0D0SH0+
lpc_rms=-32.10
pitch_keycenter=a5
sample=SoloViolin1_tenuto_quarter_PP_A5.opus
</region>

<region>
hikey=a6
hivel=127
lokey=g#6
lovel=1
lpc=UB9FQaMuCsGi2jhAg+vjP3Jmfj9lwJC/51z/PzmOn78zmag/1N3fP/Re+z9v6Q+/rV9BQMHn0cCDp2DAX1rmQMQpbsA87Cw8c0IOvRTbpj8Q8gK+dFvqPmirir1GYuW/
lpc_rms=-33.26
pitch_keycenter=a6
sample=SoloViolin1_tenuto_quarter_PP_A6.opus
</region>

<region>
hikey=b3
hivel=127
lokey=a#3
lovel=1
lpc=JcHLQYfwisJYCaBCgqZAwhBONUE1BwBAh+acvyADAkAUcpLAcvYDQVI/asGwG5RBS4iJwb43HkEqlGBAAEVNwaGMWUGSdPzAf+uaQHBpo8DqyCFAxvQQP1SE07/cXmc/
lpc_rms=-29.36
pitch_keycenter=b3
sample=SoloViolin1_tenuto_quarter_PP_B3.opus
</region>

<region>
hikey=b4
hivel=127
lokey=a#4
lovel=1
lpc=gXtSQXiJycFMwp9BJ/sNwcPGskA9vdTAcARuQNORAD+zYyw/mFCYvygcAcADtDlAeT2RwAn/d0DhEy+/dVyaP5czFsBgQAhAlTs0Pr0Bbb97DGg+hhyFP3Mpub+jXbc/
lpc_rms=-29.20
pitch_keycenter=b4
sample=SoloViolin1_tenuto_quarter_PP_B4.opus
</region>

<region>
hikey=b5
hivel=127
lokey=a#5
lovel=1
lpc=UCUfQSXlLMEByRxBPNPFwJj+h0CSGde+sV4qvgmUlj+aSKW+Z9xZP5EHyj/T9by/KTcNQLI9xL8mAx9ACn/BvtOfkr4UuPM/0mSdv4Hwjj9aIxNAUaGFwH5L10DaBNDA
lpc_rms=-31.76
pitch_keycenter=b5
sample=SoloViolin1_tenuto_quarter_PP_B5.opus
</region>

<region>
hikey=b6
hivel=127
lokey=a#6
lovel=1
lpc=MYlDQXUA68COErE/6bw3P36v1j+VQqG/HQPzP7O+lb91spE/5oOUQBcU1b8joom+wgUqwQdujECPiiFAHFPFv/FDWL/ZDwJAINwIvxbuJz8jTHQ+pgMxwAeVKT1MFzdA
lpc_rms=-34.79
pitch_keycenter=b6
sample=SoloViolin1_tenuto_quarter_PP_B6.opus
</region>

<region>
hikey=c#4
hivel=127
lokey=c4
lovel=1
lpc=ar7FQfRmh8IbS6FCXpdWwhZcoUHoQdPA4pplQMWD3L79UBPANr+bQHkzGcHKnBlB0VuYwEzksr8cc7xAcvJZwEw+BkDvCGHA0/hKQNaB9j9E3nDAVpQKwAq/rEBpyB/A
lpc_rms=-28.02
pitch_keycenter=c#4
sample=SoloViolin1_tenuto_quarter_PP_C#4.opus
</region>

<region>
hikey=c#5
hivel=127
lokey=c5
lovel=1
lpc=LzGkQEKUG8FOUQ5B38e0wBjarECIktTA4bivQArzLsCmX5w/w3wSv9JGzL0SUM0+waKUv4XN0j8t6Ma/K8H+P9Mozb8qH9Q+Hw8oP9gRqD6dC5O/ptMuP6RZnT5cHFA9
lpc_rms=-37.11
pitch_keycenter=c#5
sample=SoloViolin1_tenuto_quarter_PP_C#5.opus
</region>

<region>
hikey=c#6
hivel=127
lokey=c6
lovel=1
lpc=fEUiQVnbC8HC2XxAU5MBwDAAB0D2avS/V3/KP7PRkr1N8Js+ZQo1vwIfpD+3gMa+m6nHPq/kFL3upSA/RFrQvh/h3j7qm4i9xgesP4nvG8CbIIhA4FYCwcJ6+D6Kqfw/
lpc_rms=-36.63
pitch_keycenter=c#6
sample=SoloViolin1_tenuto_quarter_PP_C#6.opus
</region>

<region>
hikey=E7
hivel=127
lokey=c7
lovel=1
lpc=St8ZQZBNC8EikoJAe2zVvy9Nkz/5lnm/RIMYQFvh5L9kZiRA5RPuP9u6l8BX1sHA17YMQRo4h8CbDzRAFOWVv1Aopj8gLaC/YG3fPyTDIMD7dfG9JCQhQPXzhr4HFBW/
lpc_rms=-41.65
pitch_keycenter=C#7
sample=SoloViolin1_tenuto_quarter_PP_C#7.opus
</region>

<region>
hikey=d#4
hivel=127
lokey=d4
lovel=1
lpc=LlEFQViusMGLeM9B+vaEwZRgtUDUQFW/ApcGP27x9L6Acvu+CGLbPx46VcDSsIZAJ6MbwKIwi7+EUFFAIZuDwHeNiUB0DDzAcE0APy1noz+Li62/1O/aPthyqDure3A+
lpc_rms=-40.34
pitch_keycenter=d#4
sample=SoloViolin1_tenuto_quarter_PP_D#4.opus
</region>

<region>
hikey=d#5
hivel=127
lokey=d5
lovel=1
lpc=anibQIauFsF2PflA7vWNwFgXikBpW6LALaGIQKziKcAmbNQ/O1xSv/DZlj9xB1O/pZYVv1V7Cj/Rz48//nOHvxA1+7w+H9K97oM+PzWHCD5Rdky/M3nnPnIwML5XMKo+
lpc_rms=-36.64
pitch_keycenter=d#5
sample=SoloViolin1_tenuto_quarter_PP_D#5.opus
</region>

<region>
hikey=d#6
hivel=127
lokey=d6
lovel=1
lpc=9o1PQWmuP8FHo8BA+fb+v7fRd0AVUTq/oXcnQFPIGMCMpQNAu97jPviy2D7xGaA9zVR3P5uMlj9oL6a/5wsFQNOUxT6B948+9HPCvctOEsFdLudAs/bKv/7rST8srB7A
lpc_rms=-32.31
pitch_keycenter=d#6
sample=SoloViolin1_tenuto_quarter_PP_D#6.opus
</region>

<region>
hikey=f4
hivel=127
lokey=e4
lovel=1
lpc=t8YbQQ5Kv8HgtshBg4BvwaAP40BHLbvANH58QF51Rb/WrOC95PCZP9uULcBpLUhAt2M1wE74Mj8oqNw/Cs/Jv3MH+Txxb66+pIpDQJBhPsD2XIi/nYlgQPYLHMAdrEg/
lpc_rms=-36.01
pitch_keycenter=f4
sample=SoloViolin1_tenuto_quarter_PP_F4.opus
</region>

<region>
hikey=f5
hivel=127
lokey=e5
lovel=1
lpc=mqWPQLZE5cBOdK1ABdc/wGX6TkA2FlrAgDwsQJmV779hjeM/D8y/vmOaHr75PI0+ieMRv/FfC76Js4k/K/QDPxwCmr+60Bg/NTo9PtqqYz9pc3G/JeAbv2OJlj88TjA+
lpc_rms=-41.59
pitch_keycenter=f5
sample=SoloViolin1_tenuto_quarter_PP_F5.opus
</region>

<region>
hikey=f6
hivel=127
lokey=e6
lovel=1
lpc=avvtQPc4sMA43IVAiAQlwAOcJkAYlgfA9cCNP0CP9j2DbrC9jsA8PyMYjr5FkxY/7HkFPlhMez463zA/5vQBv2yimD/1vNjAqe+DQPQNFcDJvtA/DWJ8v9o0Nj/Gcgw/
lpc_rms=-40.37
pitch_keycenter=f6
sample=SoloViolin1_tenuto_quarter_PP_F6.opus
</region>

<region>
hivel=127
key=g3
lovel=1
lpc=E16jQUUZZMJgYX1CMBbhwUrYncB7rshAHjOtQJC+psBGHFnAqH4KQU+lIMGMraFAoYV7QL9P4cB3HslA0L38wJK1EUH4sLvApogUP+CtKUBZh1LAb31nQPg2YsDBz/M/
lpc_rms=-33.78
sample=SoloViolin1_tenuto_quarter_PP_G3.opus
</region>

<region>
hikey=g4
hivel=127
lokey=f#4
lovel=1
lpc=qKxXQde1EcJIKTFCiTcFwht+p0Edg5DBOY6VQYRuhMGHo05BEbi7wHBUFcAj37VAW8HPwHnSoEDbdIi/baHkv72xlz8oFOo/BawEwIBr3j9U6KLAzI38QGlf0cDRZTJA
lpc_rms=-32.86
pitch_keycenter=g4
sample=SoloViolin1_tenuto_quarter_PP_G4.opus
</region>

<region>
hikey=g5
hivel=127
lokey=f#5
lovel=1
lpc=owKRQLtp6cCoGLNAnZsJwC6rMEBvOlvANuMqQHgRL78oPgc/JKzoPl4K2r7wa/E+bOZOv2yw+D+KQ0y/nWDevrmihj91bXc/38wVwPZY9T8u/B2/fpX6P0GkN8DD/gdA
lpc_rms=-34.75
pitch_keycenter=g5
sample=SoloViolin1_tenuto_quarter_PP_G5.opus
</region>

<region>
hikey=g6
hivel=127
lokey=f#6
lovel=1
lpc=1/82QTa7tcBn84g/HyqPv9QtoT/rmNA/GlL3P7tpzL8cffm+Kl+0P8xYeT6yMDo/mrs7PxJg9T79tAFARoYVwQ8a8j+vNylA9R0FPY38lD8p062/d3uzvyVLoz+u7u4/
lpc_rms=-34.56
pitch_keycenter=g6
sample=SoloViolin1_tenuto_quarter_PP_G6.opus
</region>
</group>

<group>
group_label=MF
lpc_hicc1=84
lpc_locc1=43

<region>
hikey=a3
hivel=127
lokey=g#3
lovel=1
lpc=ze1FQaAXBcKgcRxCd17IwakcA0Hqiuy/dhY3QCb2O8BGd3Q/iVJ7P3DvT8D18nJA7duovwX/PMCtSuBAVuj/wCfUv0Dq7oDANCMtQLlHgL5gn22/BAo+PruufT660Pk9
lpc_rms=-27.29
pitch_keycenter=a3
sample=SoloViolin1_tenuto_quarter_MF_A3.opus
</region>

<region>
hikey=a4
hivel=127
lokey=g#4
lovel=1
lpc=D+BjQQlcEMLiuCNCE+Xqwcf2i0EM0R/B4bASQLG1LED5BcK/dgn6vwYIQ0CT0hfAKI+cP1kJCsAoqpNAeiZdwMti2D8Dwdi/BWV+P9Vg3j9E0yLA1IApPnlOiz/LByG+
lpc_rms=-23.44
pitch_keycenter=a4
sample=SoloViolin1_tenuto_quarter_MF_A4.opus
</region>

<region>
hikey=a5
hivel=127
lokey=g#5
lovel=1
lpc=dOUJQduREMEtPPlAXwoFwDIjLEAzgcY/BYgRwA8imUB5nBi+sb9PP1oc8r5xQ5BASWfzv9kuDEBdLYY/bz4Wv96puEACmKbATD6kQKD1aD/Xxpa+pgrEP70jUD3Ml2FA
lpc_rms=-23.63
pitch_keycenter=a5
sample=SoloViolin1_tenuto_quarter_MF_A5.opus
</region>

<region>
hikey=a6
hivel=127
lokey=g#6
lovel=1
lpc=CrRuQc98PcHMaelA5jIDQOVhjz+rexRAxE7DP/pm+b6tIzZAk1ZqQFyJIUDLsZ+/2wCwQOT0C8H58E3AVEIFQc7S6cA+o/o/wvoswEnn/T4eNhu+UxCbPsbozr//7DjA
lpc_rms=-24.34
pitch_keycenter=a6
sample=SoloViolin1_tenuto_quarter_MF_A6.opus
</region>

<region>
hikey=b3
hivel=127
lokey=a#3
lovel=1
lpc=DPq7QX/le8K4GI5CSLcown6XO0HatrjASUI7QenvHcFJhj5ArX18PznEX8DfaIRA9JsOwOOqqr8k9whB0uhRwbvuPUGNyePA66ciQBwTJkAdtcLAk26ZQHQ1NcAkKpY/
lpc_rms=-22.57
pitch_keycenter=b3
sample=SoloViolin1_tenuto_quarter_MF_B3.opus
</region>

<region>
hikey=b4
hivel=127
lokey=a#4
lovel=1
lpc=5dobQWpftcGltb1B0lB9wazQG0FnHO3APkKTQO3r3b/YKAc/qKffP3JLlsDBFKRAL5ScwBfOl0DvmaO/lVYqwPMfMEAehdu+eRiLPirM/L93stc/1isMvJ26HT5z38C8
lpc_rms=-21.34
pitch_keycenter=b4
sample=SoloViolin1_tenuto_quarter_MF_B4.opus
</region>

<region>
hikey=b5
hivel=127
lokey=a#5
lovel=1
lpc=HPMVQfyLCsHdqAlBzddwwHEEXEBetle/xKatPzZ+uz+7pJQ/ihOuviLwbUDsx+W/WtNJQP2PAcCHNYtAJkgBwFofKEASzCs/ze6lP/199TtPSBdAL6XfvzYinECTcInA
lpc_rms=-26.37
pitch_keycenter=b5
sample=SoloViolin1_tenuto_quarter_MF_B5.opus
</region>

<region>
hikey=b6
hivel=127
lokey=a#6
lovel=1
lpc=ERI0QSoyvsA20cQ/4KOVQIXf4b/vbQTAGvPVQJ5HasBo5sw+7mDFQBUiVL/GvyC/xiEMwZXeFECH21pAobenwADVoT+xjpBALbipwPet7T/2F0JABd6vwAnHKr4zLzxA
lpc_rms=-28.05
pitch_keycenter=b6
sample=SoloViolin1_tenuto_quarter_MF_B6.opus
</region>

<region>
hikey=c#4
hivel=127
lokey=c4
lovel=1
lpc=ZW/VQRYmj8KRpKNCrP5KwlM8hUGMCQPBHO5iQanIjcHLSl9B/5aNwCpuG8HvFYxBTi0bwfPSicCGC1RBM8szwZcksEDlCSLAsa78P4qDIT8E1GHAHoeAQEEAiMAb5AhA
lpc_rms=-21.89
pitch_keycenter=c#4
sample=SoloViolin1_tenuto_quarter_MF_C#4.opus
</region>

<region>
hikey=c#5
hivel=127
lokey=c5
lovel=1
lpc=fKSUQE8/F8FkmQ5BG5iewC1XRUBKDH7AsKJ4QH1QBcBRYvo+EkkRPjgHxL4cfms/sFXJv5pYsz+uYLg+U0TAvyrnuT8QGjq/dL0aP04Npr8HdgdA6Vjcv6XCKT8Cpvc9
lpc_rms=-29.12
pitch_keycenter=c#5
sample=SoloViolin1_tenuto_quarter_MF_C#5.opus
</region>

<region>
hikey=c#6
hivel=127
lokey=c6
lovel=1
lpc=hlfcQI5HdMBasTJAHLV2vxu31z9kz3y/kEfwP3CRKb0nu3c/nGrOPSSEpz+VsVq+JSOaP5yuDr6I3sM/GyB3v56f6T/+nBw+f9F+P0jbsb7LVA9AxLSCwOKxUL87HoI/
lpc_rms=-30.81
pitch_keycenter=c#6
sample=SoloViolin1_tenuto_quarter_MF_C#6.opus
</region>

<region>
hikey=E7
hivel=127
lokey=c7
lovel=1
lpc=sl6FQT4W78Auwpe/8adNQBGsGr+jiB1AFBjPP2EDEkAVL5Y/6vOSQAq5o8BLNbDBnNmIQaEdMEA3Zs+/ofi4P9UDS7/sOz2/0MjjvvOyur5D2jPAK0mtQELH+kAB+RDB
lpc_rms=-29.04
pitch_keycenter=C#7
sample=SoloViolin1_tenuto_quarter_MF_C#7.opus
</region>

<region>
hikey=d#4
hivel=127
lokey=d4
lovel=1
lpc=lIzWQPycicFX7J5BLHVLwd3lmUAAWoK/owHBvo7oTz8G7RO+Dkwiv3HJiT6svgw/5mtev8++tz7HCL8/e/RTwHqLMED5FQy/Yearv1vwB0BQ/PC/k6OtP6sskL84Gxg/
lpc_rms=-33.04
pitch_keycenter=d#4
sample=SoloViolin1_tenuto_quarter_MF_D#4.opus
</region>

<region>
hikey=d#5
hivel=127
lokey=d5
lovel=1
lpc=wOSOQGVqCsGcKfBAK3SUwI0AeUAe4lLAyjoYQK5O+78jrbg/gCfXPjmZyr/0LglA/5QYwFUx6j/m5gu/NWnyPvq48752Uua+xOqsP422u7/xLuw/qxflvxDvVT+qCAU+
lpc_rms=-29.21
pitch_keycenter=d#5
sample=SoloViolin1_tenuto_quarter_MF_D#5.opus
</region>

<region>
hikey=d#6
hivel=127
lokey=d6
lovel=1
lpc=F5EgQf0t98AZzcZAVlIAP2FzwT5I0cI/PQXoP5dKWT866OA/PrfoP5k4gz9+xrE/CkghQJV9IT6zbjVATWoGPyqOCUBbyLw/Ax2UP7M5wcCiQp5AX+FKv+jBj7/zGtY/
lpc_rms=-25.24
pitch_keycenter=d#6
sample=SoloViolin1_tenuto_quarter_MF_D#6.opus
</region>

<region>
hikey=f4
hivel=127
lokey=e4
lovel=1
lpc=UkI7Qe+a6cEPpQFCIf61wbAIWkGn+SXBRdD2QEAzb8B0FiY+lqZWQD6/scCwkK9AA4NwwFuj0b6k3IlAMGZRwD2jg70KGBE/xPuKPw7G6r3jv0LAXlWVQB62lMC7Qh1A
lpc_rms=-25.75
pitch_keycenter=f4
sample=SoloViolin1_tenuto_quarter_MF_F4.opus
</region>

<region>
hikey=f5
hivel=127
lokey=e5
lovel=1
lpc=b8N3QERS3cDQTa1Azw+uv6pAKj/1IxjA/rtVQDlqJsB/c9Q/4Oyqvv3K7b57q6M/J2Rqv34rtz10nRo/VjEUPoUUPr/gkJE+BacYP767475Z91M+PyMRvq7cAz9+TTi9
lpc_rms=-30.27
pitch_keycenter=f5
sample=SoloViolin1_tenuto_quarter_MF_F5.opus
</region>

<region>
hikey=f6
hivel=127
lokey=e6
lovel=1
lpc=/LIiQRyl9cDghtZAIRv8u32NxD+qm9c/MwaKP0rkM7/SpQxAOWJRvoRrkT+3ZQM/I7C+P1cu1r78x9M/6WkMvhtI6T8BEwfBOEqbQNd4HcDH74+/tvXlPqawCsBnPVQ/
lpc_rms=-26.39
pitch_keycenter=f6
sample=SoloViolin1_tenuto_quarter_MF_F6.opus
</region>

<region>
hivel=127
key=g3
lovel=1
lpc=SyuXQeGAU8L/dYFCTSsvwmAgiEGphcvAh626QNyZXsA6gVa/2aQ6QKktu8BC0PRA6VJuwGAmZ74bLhk/XmarPr2sBL8G02e9qyMswMqY3UALYJ7AXoKTP+ftDr+jIzQ/
lpc_rms=-23.25
sample=SoloViolin1_tenuto_quarter_MF_G3.opus
</region>

<region>
hikey=g4
hivel=127
lokey=f#4
lovel=1
lpc=NMw4QdUp9MFMfhFCLKXawUSniEGAFkbBma4JQdcNFcDCzxHA/jROQPHNiMCXocFAre7KwEJ4fkBSUoQ+ZvJuwLEamEB6hpHA+A1kQEG2Rb8Bcvq/c/hQQAKSO8CsE7M/
lpc_rms=-24.19
pitch_keycenter=g4
sample=SoloViolin1_tenuto_quarter_MF_G4.opus
</region>

<region>
hikey=g5
hivel=127
lokey=f#5
lovel=1
lpc=fc+DQNw+z8DWqL5AiGhvwF5mQEAomBXAn8YMQLinur92v/Y/kgEwv2D2oT37QR49EZvRPah29j3/e24/AHRcv4kztj+WbcS+i/hEv4V6uT9ZBKO/JlzuP20aur/nhaE/
lpc_rms=-26.06
pitch_keycenter=g5
sample=SoloViolin1_tenuto_quarter_MF_G5.opus
</region>

<region>
hikey=g6
hivel=127
lokey=f#6
lovel=1
lpc=0w0oQYWlh8B3Qe0/2a81Pyg9HkBOixXAspePQHVU7z+ZAP8+4qPVP5bpgT/rIZ4/76UcQN6ONT4z2mFAMucFweF1DkAOPsk/U4yrPjuPub8ToGBAkL6Ov9TTBMAT8Zg/
lpc_rms=-24.57
pitch_keycenter=g6
sample=SoloViolin1_tenuto_quarter_MF_G6.opus
</region>
</group>

<group>
group_label=FF
lpc_hicc1=127
lpc_locc1=85

<region>
hikey=a3
hivel=127
lokey=g#3
lovel=1
lpc=pB8zQeHJ68EMnwtCLhLBwV7fJkE704/Ayg+JQKORV8CjnlY/0/yZPzEOacDyCbhAXvCEwHvTsL8n2alA64tjwKeW7L5WWQ9AQsEVvxe7fr9RxXg/TP3pvV0CSr8HSz4/
lpc_rms=-26.65
pitch_keycenter=a3
sample=SoloViolin1_tenuto_quarter_FF_A3.opus
</region>

<region>
hikey=a4
hivel=127
lokey=g#4
lovel=1
lpc=iC5SQbGzBcJBjRRCWs2/wSBeNEFrmsvA1aExQDYNBz8PIsa/j0Z5QA1Q4MCRxKlAFk4dvwaTSsDgT5pAkvBowLN49z/V7Qy/hOvCPtA7Zr9L550/JDt6v3L6SD/KPZG+
lpc_rms=-21.31
pitch_keycenter=a4
sample=SoloViolin1_tenuto_quarter_FF_A4.opus
</region>

<region>
hikey=a5
hivel=127
lokey=g#5
lovel=1
lpc=Y1HjQK7u5cA2PcxA4hfnv9a4J0AmDq2+ZjW9PzYlKz8wr8g/vWYNv/yXKECoAIi+YRvGPmutFUBOdiW+CtHAP1p6tD6ZJ/c/AAIlv2H4HUCiE/298dPbP4oibb+yc1pA
lpc_rms=-19.43
pitch_keycenter=a5
sample=SoloViolin1_tenuto_quarter_FF_A5.opus
</region>

<region>
hikey=a6
hivel=127
lokey=g#6
lovel=1
lpc=3oBdQa3/6MA2fY5AdYMuQPmmNT+NE7lAQKirv05jbkCtYAQ/4OykQDmbM0CGg1I/J7dDQNg5vsA3KaHAc1DlQMvio8DeGSE/CFu+v+VUKMDKIDdAQahSwB62QT+lOo3A
lpc_rms=-22.01
pitch_keycenter=a6
sample=SoloViolin1_tenuto_quarter_FF_A6.opus
</region>

<region>
hikey=b3
hivel=127
lokey=a#3
lovel=1
lpc=g5WVQcIvTMJ9eXdCfmUvwtYHqEEr/jPB2kMHQZVCwcDP9IJAJeC1v8KU779WliFAykL5v3CFFkCjsq0/w0b/wLNcH0GE6L3AvRwXQI/flL/KLwxAhYeGwG0SdED7wZa/
lpc_rms=-20.60
pitch_keycenter=b3
sample=SoloViolin1_tenuto_quarter_FF_B3.opus
</region>

<region>
hikey=b4
hivel=127
lokey=a#4
lovel=1
lpc=tcQjQUOsq8Fhk5xBw1MywQj2vUBhQazABWSrQOsqhMBf9jBAcOwPvyD1vr+/1rI/NKSyv2TN7T+hfWY9rnLgvbt137/HfxxAodRXwMYAOUA+yzC/Np1Mvo+XRj9En8m9
lpc_rms=-20.68
pitch_keycenter=b4
sample=SoloViolin1_tenuto_quarter_FF_B4.opus
</region>

<region>
hikey=b5
hivel=127
lokey=a#5
lovel=1
lpc=XJP5QPEv0cDzY81Am7TOvy8GC0BrI1w/cnmPP6x8gj9AF6U/VkqOP4IWfD/JpZY/UWE+P0sEqz9YT+A/fYR4vn+pN0A6re++52X6Py67zD6qQAtAkmVhv0eIgkDqRDrA
lpc_rms=-22.21
pitch_keycenter=b5
sample=SoloViolin1_tenuto_quarter_FF_B5.opus
</region>

<region>
hikey=b6
hivel=127
lokey=a#6
lovel=1
lpc=2tpdQWQtpMA9mLA/WMDbQEHQAr88VoLAsvD0QMPFNcAdgXS+kfMDQRFZKz+//7U+okU7wZTOi0BkkKw/zXu1wDDRcD9NXrtAVMC9wO5OQEBLYC1AocbhwAJsgL7iUtg/
lpc_rms=-22.00
pitch_keycenter=b6
sample=SoloViolin1_tenuto_quarter_FF_B6.opus
</region>

<region>
hikey=c#4
hivel=127
lokey=c4
lovel=1
lpc=4rifQUDwXcKnw4pCAStFwp6omkGbmqLA5X41QL3rhcB855dAH3qjwGJnSkAtHrY/mvtWwCZcqr8y5iZBvzVSwegw6kAugaW/kGuVPvVVHUA5++bARwoNQVzCtcCbaag/
lpc_rms=-20.61
pitch_keycenter=c#4
sample=SoloViolin1_tenuto_quarter_FF_C#4.opus
</region>

<region>
hikey=c#5
hivel=127
lokey=c5
lovel=1
lpc=KK60QNJYOMFsJTJBwfrYwPEEi0CkmIfAY/FWQE6bQ8A21CxAj51zv454Ir87Y/0/ElETwMqDFEB8I6i/0fzcPqw7uL7pnDg+Dg9NvuQquT4BgII+Wg5mv5qjfD/5x/K8
lpc_rms=-27.43
pitch_keycenter=c#5
sample=SoloViolin1_tenuto_quarter_FF_C#5.opus
</region>

<region>
hikey=c#6
hivel=127
lokey=c6
lovel=1
lpc=qecUQXk358DEx+FAs2JhwOH7eUCjn/C/3cZbQAK3ir8tShdAP/hIvjDqnT+mejg/rPuYP9R3TT/x+x8/YSBvP7NI7z7+nqE/F1V5P54Dgb4OXGdAIU7XwFPA1D+ljZG+
lpc_rms=-22.18
pitch_keycenter=c#6
sample=SoloViolin1_tenuto_quarter_FF_C#6.opus
</region>

<region>
hikey=E7
hivel=127
lokey=c7
lovel=1
lpc=vhNGQVzHP8A9JM+/ZcBCQIom/b4m+bs/lm66P7l4eT+Q8vQ/N1GXQAqJncAJMnLBIv4oQYeYDEDcEI6/sgjpP8QFZ78VVQI/yQbgPd7mtL/JzQDAuRKOQJ7bo0BqycfA
lpc_rms=-26.26
pitch_keycenter=C#7
sample=SoloViolin1_tenuto_quarter_FF_C#7.opus
</region>

<region>
hikey=d#4
hivel=127
lokey=d4
lovel=1
lpc=687kQHbUk8FMXLRBKgGHwXYICEGiwTLAQXg2PzltGL8MqZE/0Nd2vyhniL80XFhAc4piwL+Abz+LdcA/H3UYwPA8C0DYj1i/fqVzv5+rD0BZ5QvAGIisP86fhr/HbkU/
lpc_rms=-30.10
pitch_keycenter=d#4
sample=SoloViolin1_tenuto_quarter_FF_D#4.opus
</region>

<region>
hikey=d#5
hivel=127
lokey=d5
lovel=1
lpc=ElajQLEZLcGj1CNBMH+iwGLaA0APARvAoyJ/QI2WisCljWNAlwkQwAMduT8cc5a/4aipP7ljjL+iftI/zLAEwKYe5D8OVYW/K6MBP7yOc74SJWg/zwbSv2WJxj/D1Li+
lpc_rms=-26.49
pitch_keycenter=d#5
sample=SoloViolin1_tenuto_quarter_FF_D#5.opus
</region>

<region>
hikey=d#6
hivel=127
lokey=d6
lovel=1
lpc=u98PQQMJv8C+4MZANkiQvoUReUA4Rcy+kjJoQOXb8TwS8fc/SggaQBSwRD/YXck/Lr4IQO5u4j9UXjA/BR0VQJn5AUAGdmI/2VknQKGxqMDtSz5AIw1IvSC0f7+g75u+
lpc_rms=-19.03
pitch_keycenter=d#6
sample=SoloViolin1_tenuto_quarter_FF_D#6.opus
</region>

<region>
hikey=f4
hivel=127
lokey=e4
lovel=1
lpc=2pMuQTYK4sEA8QNC6O3AwZgqWEGHwQTBAlW6QFMwYMCbBsK9Lta0QO7VCMEM8b1Au1/Tv9Ea77/VU5NAM/eZwKXCQ0BjEQHA2vXQPz1FID/AsFXA9wUwQGGaD79RqA49
lpc_rms=-26.62
pitch_keycenter=f4
sample=SoloViolin1_tenuto_quarter_FF_F4.opus
</region>

<region>
hikey=f5
hivel=127
lokey=e5
lovel=1
lpc=Zr2UQKfcC8GmbPBAY4ZywM2DXkCDyIrAe2R1QGfuEMApcsM/xDTLv3fODEBkU/+/sF3/PxmG4r+cs9Y/V6Apv/lNOT6R846/DRL9PyDVMr9uh4O+Cmk0P2W+8L5A2do+
lpc_rms=-26.95
pitch_keycenter=f5
sample=SoloViolin1_tenuto_quarter_FF_F5.opus
</region>

<region>
hikey=f6
hivel=127
lokey=e6
lovel=1
lpc=OXndQEjEd8CeIKpANRyDPy6Vxz+VRaQ/b24nQAImqD/Yfwi+ZQ0WQLxAgT21zrc/lGLMPqXZ2D9I3cK8KbHUP9k1JT80fJPAIZkgQLOHF8Dwpo6/dH/aviwwSL6ii9a/
lpc_rms=-22.37
pitch_keycenter=f6
sample=SoloViolin1_tenuto_quarter_FF_F6.opus
</region>

<region>
hivel=127
key=g3
lovel=1
lpc=3YCDQXL9NMImNWBCUoIiwpxvmUFTBQPBaiKBQLpfE7/zRzbAZnm9QHJDAsH2UpxAWWgVQAAbssCRBnNAoBhDwHYyw0AT8f7Art2vQB/inr/w1R8+H+bDvr1PEb8FsVE/
lpc_rms=-21.59
sample=SoloViolin1_tenuto_quarter_FF_G3.opus
</region>

<region>
hikey=g4
hivel=127
lokey=f#4
lovel=1
lpc=TgceQVjFz8Frn/VBnauuwd/cK0GfH8XAUj/ZQOm4xcBqhjhA1AORP7a6WMDxcixAp67/virwdcCF1/RADpDAwDlqJEAyxQfAA5w5QIScyL+WUry/Nho9QCkHAMAwF04/
lpc_rms=-21.53
pitch_keycenter=g4
sample=SoloViolin1_tenuto_quarter_FF_G4.opus
</region>

<region>
hikey=g5
hivel=127
lokey=f#5
lovel=1
lpc=B9E+QExNj8BP0HZAkPPqv2eEhz9fjTW/fFKyP4LpnL/SW4o/VYT+vYfTVj5AvrG+6QMfPwhXyb0QElS+i62lPzhXk7/hQEk/Hd0GO1wHeL1w24O9Prp1P/uQhr92F3I/
lpc_rms=-24.07
pitch_keycenter=g5
sample=SoloViolin1_tenuto_quarter_FF_G5.opus
</region>

<region>
hikey=g6
hivel=127
lokey=f#6
lovel=1
lpc=dlvMQMxiGMD+oUlA/1pvP07+MEBa9wHAvspSQBZHij4SmkA//gGdPwfKcz8qcV4/9oPPP1aehT72HR5Ani2KwEm/XD8KP+29C73gvoYS3b8w/A1AFhqTvuShW7++moc/
lpc_rms=-24.89
pitch_keycenter=g6
sample=SoloViolin1_tenuto_quarter_FF_G6.opus
</region>
</group>